<svg width="41" height="29" viewBox="0 0 41 29" fill="none" xmlns="http://www.w3.org/2000/svg">
<path d="M34.6718 2.4287C31.9826 1.27776 29.1437 0.461237 26.2276 0C25.8285 0.66688 25.4675 1.35301 25.1459 2.05552C22.0396 1.61794 18.8808 1.61794 15.7745 2.05552C15.4528 1.35308 15.0917 0.666961 14.6928 0C11.7748 0.465132 8.93405 1.28359 6.24219 2.43472C0.898153 9.82617 -0.550531 17.034 0.173811 24.1396C3.30341 26.3012 6.80633 27.9452 10.5303 29C11.3688 27.9457 12.1108 26.8272 12.7484 25.6564C11.5374 25.2336 10.3686 24.7119 9.25545 24.0974C9.54841 23.8988 9.83492 23.6942 10.1118 23.4955C13.3507 24.9195 16.8858 25.6578 20.465 25.6578C24.0443 25.6578 27.5794 24.9195 30.8183 23.4955C31.0984 23.7092 31.3849 23.9139 31.6746 24.0974C30.5594 24.7129 29.3884 25.2356 28.1753 25.6594C28.8121 26.8297 29.5541 27.9472 30.3934 29C34.1205 27.9494 37.6261 26.3062 40.7563 24.1426C41.6062 15.9025 39.3044 8.76079 34.6718 2.4287ZM13.6659 19.7697C11.6474 19.7697 9.97979 18.0573 9.97979 15.9506C9.97979 13.8439 11.5894 12.1164 13.6594 12.1164C15.7295 12.1164 17.3842 13.8439 17.3488 15.9506C17.3134 18.0573 15.723 19.7697 13.6659 19.7697ZM27.2642 19.7697C25.2425 19.7697 23.5813 18.0573 23.5813 15.9506C23.5813 13.8439 25.191 12.1164 27.2642 12.1164C29.3374 12.1164 30.9793 13.8439 30.9439 15.9506C30.9084 18.0573 29.3213 19.7697 27.2642 19.7697Z" fill="#DBDBDB"/>
</svg>
