<svg width="20" height="38" viewBox="0 0 20 38" fill="none" xmlns="http://www.w3.org/2000/svg">
<path d="M5.98802 38V20.5207H0.289743C0 20.5207 0 20.5207 0 20.3307V14.0609C0 13.871 0.096581 13.871 0.289743 13.871H5.98802V8.45617C5.97741 7.07968 6.27414 5.71768 6.85725 4.46632C7.66042 2.78826 9.07301 1.46662 10.8171 0.76147C12.0014 0.237248 13.2891 -0.022298 14.5876 0.00150055C16.0363 0.00150055 17.5816 0.0964968 19.0303 0.0964968C19.3162 0.0964968 19.6098 0.191493 19.803 0.191493C19.9961 0.191493 20 0.286489 20 0.381486V5.98626C20 6.17626 19.9034 6.17626 19.803 6.17626H16.4188C15.8988 6.19268 15.3815 6.25628 14.8735 6.36625C14.4276 6.44841 14.0197 6.66729 13.7081 6.99153C13.3965 7.31577 13.1972 7.72871 13.1389 8.17118C13.0557 8.54533 13.0219 8.92848 13.0384 9.31113V13.681H19.5094C19.7991 13.681 19.7991 13.681 19.7025 13.9659C19.5094 15.1059 19.4167 16.1509 19.2196 17.2908C19.1383 18.215 19.0094 19.1344 18.8333 20.0457C18.8333 20.4257 18.8333 20.4257 18.447 20.4257H12.9457V38H5.98802Z" fill="#ECE8E1"/>
</svg>
