<svg width="18" height="34" viewBox="0 0 18 34" fill="none" xmlns="http://www.w3.org/2000/svg">
<path d="M5.38922 34V18.3606H0.260769C0 18.3606 0 18.3606 0 18.1906V12.5808C0 12.4109 0.0869229 12.4109 0.260769 12.4109H5.38922V7.56604C5.37967 6.33445 5.64673 5.11581 6.17153 3.99618C6.89437 2.49476 8.16571 1.31224 9.73537 0.681316C10.8013 0.212275 11.9602 -0.0199509 13.1288 0.0013426C14.4327 0.0013426 15.8234 0.0863392 17.1273 0.0863392C17.3846 0.0863392 17.6488 0.171336 17.8227 0.171336C17.9965 0.171336 18 0.256333 18 0.341329V5.35613C18 5.52612 17.9131 5.52612 17.8227 5.52612H14.7769C14.3089 5.54082 13.8434 5.59773 13.3861 5.69612C12.9849 5.76963 12.6177 5.96547 12.3373 6.25558C12.0568 6.54569 11.8775 6.91516 11.825 7.31105C11.7501 7.64582 11.7198 7.98864 11.7346 8.33101V12.2409H17.5584C17.8192 12.2409 17.8192 12.2409 17.7323 12.4958C17.5584 13.5158 17.475 14.4508 17.2977 15.4707C17.2245 16.2976 17.1084 17.1203 16.95 17.9356C16.95 18.2756 16.95 18.2756 16.6023 18.2756H11.6512V34H5.38922Z" fill="#ECE8E1"/>
</svg>
