<svg width="40" height="37" viewBox="0 0 40 37" fill="none" xmlns="http://www.w3.org/2000/svg">
<path fill-rule="evenodd" clip-rule="evenodd" d="M19.9948 0C8.95105 0 0 7.12498 0 15.9191C0 21.6462 3.79176 26.6535 9.48977 29.4597C9.37137 29.9097 9.19715 30.5676 9.0036 31.2984L9.00355 31.2986L9.00323 31.2998L9.00316 31.3001C8.51937 33.1269 7.915 35.409 7.75965 36.0422C7.49029 37.1375 8.16369 37.1271 8.59881 36.8246C8.94069 36.5951 14.0793 33.0795 16.2963 31.5565C17.4981 31.7338 18.7413 31.8277 20.0052 31.8277C31.049 31.8277 40 24.7027 40 15.9086C40 7.12498 31.0386 0 19.9948 0ZM11.9564 11.2247H6.10299C5.55391 11.2247 5.10843 11.6733 5.10843 12.2262C5.10843 12.7791 5.55391 13.2276 6.10299 13.2276H8.00923V20.2796C8.00923 20.5404 8.11283 20.7907 8.29931 20.9681C8.47543 21.1454 8.72407 21.2497 8.98307 21.2497H9.20063C9.45963 21.2497 9.70827 21.1454 9.88439 20.9681C10.0709 20.7803 10.1745 20.5299 10.1745 20.2796V13.2276H11.9668C12.5158 13.2276 12.9613 12.7791 12.9613 12.2262C12.951 11.6733 12.5055 11.2247 11.9564 11.2247ZM23.2908 19.3828H26.0051C26.5024 19.3828 26.9064 19.7896 26.9168 20.2903C26.9168 20.7911 26.5127 21.1979 26.0155 21.1979H22.0372C21.5399 21.1979 21.1359 20.7911 21.1359 20.2903C21.1359 20.2278 21.1462 20.1652 21.1566 20.113L21.1527 20.0897L21.1527 20.0896C21.1438 20.037 21.1359 19.9903 21.1359 19.9357V12.1743C21.1359 11.5797 21.6124 11.0894 22.2133 11.0894C22.8039 11.0894 23.2908 11.5693 23.2908 12.1743V19.3828ZM34.6965 19.7062L31.661 15.7003L34.396 12.9463C34.769 12.5707 34.769 11.9657 34.396 11.5901C34.0231 11.2146 33.4222 11.2146 33.0492 11.5901L29.6615 15.0014V12.1743C29.6615 11.5693 29.1746 11.0894 28.5841 11.0894C27.9832 11.0894 27.5066 11.5797 27.5066 12.1743V20.1756C27.5066 20.7806 27.9935 21.2605 28.5841 21.2605C29.1849 21.2605 29.6615 20.7702 29.6615 20.1756V17.7032L30.2728 17.0878L33.1425 20.8745C33.4636 21.3022 34.0645 21.3961 34.4893 21.0727C34.9348 20.7493 35.0176 20.1443 34.6965 19.7062ZM17.4026 11.9344L20.3137 19.967C20.4898 20.4781 20.2308 21.031 19.7336 21.2084C19.2259 21.3857 18.6768 21.1249 18.5007 20.6137L18.0034 19.1846H14.0148L13.5176 20.6137C13.3414 21.1145 12.7923 21.3857 12.2847 21.2084C11.7874 21.031 11.5181 20.4781 11.6942 19.967L14.5536 12.2265C14.5639 12.1743 14.5846 12.1326 14.6054 12.0909C14.7297 11.5171 15.3098 11.079 16.0247 11.079C16.667 11.079 17.2057 11.4337 17.3922 11.924L17.4026 11.9344ZM15.9832 13.52L14.6468 17.3694H17.3611L16.0247 13.52H15.9832Z" fill="#ECE8E1"/>
</svg>
