<svg width="43" height="32" viewBox="0 0 43 32" fill="none" xmlns="http://www.w3.org/2000/svg">
<path d="M36.4251 2.67995C33.5999 1.40994 30.6175 0.508951 27.5539 0C27.1346 0.735868 26.7553 1.49298 26.4175 2.26816C23.1542 1.78531 19.8356 1.78531 16.5722 2.26816C16.2342 1.49306 15.8549 0.735957 15.4358 0C12.3703 0.513249 9.38583 1.41638 6.55784 2.68659C0.943571 10.8427 -0.57837 18.7962 0.1826 26.6368C3.47046 29.022 7.15051 30.8361 11.0628 32C11.9437 30.8366 12.7232 29.6024 13.3931 28.3105C12.1208 27.8439 10.8929 27.2683 9.72348 26.5903C10.0313 26.3711 10.3323 26.1453 10.6231 25.9261C14.0258 27.4974 17.7397 28.312 21.4999 28.312C25.2601 28.312 28.974 27.4974 32.3767 25.9261C32.671 26.1619 32.972 26.3877 33.2764 26.5903C32.1047 27.2694 30.8745 27.8461 29.6 28.3138C30.269 29.6052 31.0486 30.8383 31.9303 32C35.8459 30.8407 39.5288 29.0276 42.8172 26.6401C43.7101 17.5475 41.2919 9.66708 36.4251 2.67995ZM14.3569 21.8149C12.2364 21.8149 10.4845 19.9253 10.4845 17.6007C10.4845 15.276 12.1755 13.3699 14.3502 13.3699C16.5249 13.3699 18.2633 15.276 18.2261 17.6007C18.1889 19.9253 16.5181 21.8149 14.3569 21.8149ZM28.6429 21.8149C26.5189 21.8149 24.7738 19.9253 24.7738 17.6007C24.7738 15.276 26.4648 13.3699 28.6429 13.3699C30.821 13.3699 32.5458 15.276 32.5086 17.6007C32.4714 19.9253 30.8041 21.8149 28.6429 21.8149Z" fill="#ECE8E1"/>
</svg>
