<svg width="40" height="40" viewBox="0 0 40 40" fill="none" xmlns="http://www.w3.org/2000/svg">
<path d="M7.50781 1.8125C6.24219 2.30469 5.17188 2.96094 4.10156 4.03125C3.03125 5.09375 2.375 6.17187 1.88281 7.42969C1.40625 8.64844 1.08594 10.0469 0.992188 12.0937C0.898437 14.1406 0.875 14.7969 0.875 20.0156C0.875 25.2344 0.898437 25.8906 0.992188 27.9375C1.08594 29.9844 1.41406 31.3828 1.88281 32.6016C2.375 33.8672 3.03125 34.9375 4.10156 36.0078C5.17188 37.0781 6.24219 37.7344 7.50781 38.2266C8.72656 38.7031 10.125 39.0234 12.1719 39.1172C14.2188 39.2109 14.875 39.2344 20.0938 39.2344C25.3125 39.2344 25.9688 39.2109 28.0156 39.1172C30.0625 39.0234 31.4609 38.6953 32.6797 38.2266C33.9453 37.7344 35.0156 37.0781 36.0859 36.0078C37.1562 34.9375 37.8125 33.8672 38.3047 32.6016C38.7812 31.3828 39.1016 29.9844 39.1953 27.9375C39.2891 25.8906 39.3125 25.2344 39.3125 20.0156C39.3125 14.7969 39.2891 14.1406 39.1953 12.0937C39.1016 10.0469 38.7734 8.64844 38.3047 7.42969C37.8125 6.17187 37.1562 5.09375 36.0938 4.03125C35.0234 2.96094 33.9531 2.30469 32.6875 1.8125C31.4687 1.33594 30.0703 1.01562 28.0234 0.921875C25.9766 0.828125 25.3203 0.804688 20.1016 0.804688C14.8828 0.804688 14.2266 0.828125 12.1797 0.921875C10.125 1.00781 8.72656 1.33594 7.50781 1.8125ZM27.8594 4.375C29.7344 4.46094 30.75 4.77344 31.4297 5.03906C32.3281 5.39062 32.9688 5.80469 33.6406 6.47656C34.3125 7.14844 34.7266 7.78906 35.0781 8.6875C35.3438 9.36719 35.6562 10.3828 35.7422 12.2578C35.8359 14.2812 35.8516 14.8906 35.8516 20.0234C35.8516 25.1562 35.8281 25.7656 35.7422 27.7891C35.6562 29.6641 35.3438 30.6797 35.0781 31.3594C34.7266 32.2578 34.3125 32.8984 33.6406 33.5703C32.9688 34.2422 32.3281 34.6562 31.4297 35.0078C30.75 35.2734 29.7344 35.5859 27.8594 35.6719C25.8359 35.7656 25.2266 35.7812 20.0938 35.7812C14.9609 35.7812 14.3516 35.7578 12.3281 35.6719C10.4531 35.5859 9.4375 35.2734 8.75781 35.0078C7.85938 34.6562 7.21875 34.2422 6.54688 33.5703C5.875 32.8984 5.46094 32.2578 5.10938 31.3594C4.84375 30.6797 4.53125 29.6641 4.44531 27.7891C4.35156 25.7656 4.33594 25.1562 4.33594 20.0234C4.33594 14.8906 4.35938 14.2812 4.44531 12.2578C4.53125 10.3828 4.84375 9.36719 5.10938 8.6875C5.46094 7.78906 5.875 7.14844 6.54688 6.47656C7.21875 5.80469 7.85938 5.39062 8.75781 5.03906C9.4375 4.77344 10.4531 4.46094 12.3281 4.375C14.3516 4.28125 14.9609 4.26562 20.0938 4.26562C25.2266 4.26562 25.8359 4.28125 27.8594 4.375Z" fill="#ECE8E1"/>
<path d="M10.2266 20.0234C10.2266 25.4766 14.6484 29.8906 20.0938 29.8906C25.5391 29.8906 29.9609 25.4687 29.9609 20.0234C29.9609 14.5781 25.5469 10.1562 20.0938 10.1562C14.6406 10.1562 10.2266 14.5703 10.2266 20.0234ZM26.5 20.0234C26.5 23.5625 23.6328 26.4297 20.0938 26.4297C16.5547 26.4297 13.6875 23.5625 13.6875 20.0234C13.6875 16.4844 16.5547 13.6172 20.0938 13.6172C23.6328 13.6172 26.5 16.4844 26.5 20.0234Z" fill="#ECE8E1"/>
<path d="M30.3594 12.0703C31.6322 12.0703 32.6641 11.0385 32.6641 9.76562C32.6641 8.49278 31.6322 7.46094 30.3594 7.46094C29.0865 7.46094 28.0547 8.49278 28.0547 9.76562C28.0547 11.0385 29.0865 12.0703 30.3594 12.0703Z" fill="#ECE8E1"/>
</svg>
