<svg width="36" height="30" viewBox="0 0 36 30" fill="none" xmlns="http://www.w3.org/2000/svg">
<path d="M11.3076 30C24.894 30 32.328 18.4467 32.328 8.44737V7.4729C33.769 6.39828 35.0123 5.06974 36 3.54921C34.6493 4.16053 33.2178 4.56354 31.752 4.74514C33.292 3.79455 34.4432 2.30332 34.992 0.548304C33.5475 1.43565 31.9641 2.06005 30.312 2.39388C29.2996 1.28662 27.986 0.516767 26.5418 0.184137C25.0975 -0.148492 23.589 -0.0285549 22.212 0.528399C20.835 1.08535 19.6529 2.05363 18.8191 3.30769C17.9852 4.56175 17.5381 6.04373 17.5356 7.56149C17.5393 8.14241 17.6021 8.72135 17.7228 9.28895C14.7848 9.13819 11.9105 8.35574 9.28642 6.99238C6.66238 5.62901 4.34723 3.7152 2.4912 1.37512C1.55085 3.0453 1.26457 5.01945 1.69034 6.89789C2.1161 8.77633 3.22209 10.4187 4.7844 11.4926C3.6139 11.4556 2.46828 11.137 1.44 10.5624V10.6657C1.44471 12.4112 2.03636 14.1015 3.11516 15.4517C4.19396 16.8019 5.6939 17.7294 7.362 18.0776C6.72886 18.2567 6.07479 18.3461 5.418 18.3433C4.95293 18.3444 4.48881 18.2999 4.032 18.2105C4.50156 19.7178 5.41957 21.0367 6.65724 21.982C7.89492 22.9273 9.39015 23.4516 10.9332 23.4814C8.31705 25.5902 5.0846 26.7344 1.7568 26.7296C1.16946 26.7288 0.582731 26.6905 0 26.6152C3.37754 28.8254 7.30081 29.9998 11.3076 30Z" fill="#ECE8E1"/>
</svg>
