<svg width="33" height="37" viewBox="0 0 33 37" fill="none" xmlns="http://www.w3.org/2000/svg">
<path fill-rule="evenodd" clip-rule="evenodd" d="M27.1724 2C25.2108 2 23.6207 3.59016 23.6207 5.55172C23.6207 6.20031 23.7936 6.80547 24.0952 7.32686C24.7109 8.39108 25.859 9.10345 27.1724 9.10345C29.134 9.10345 30.7241 7.51329 30.7241 5.55172C30.7241 3.59016 29.134 2 27.1724 2ZM21.6207 5.55172C21.6207 2.48559 24.1063 0 27.1724 0C30.2385 0 32.7241 2.48559 32.7241 5.55172C32.7241 8.61786 30.2385 11.1034 27.1724 11.1034C25.4782 11.1034 23.9622 10.3442 22.9448 9.15012L10.7883 16.2207C10.9924 16.7988 11.1034 17.4209 11.1034 18.069C11.1034 18.717 10.9924 19.3391 10.7883 19.9173L22.9448 26.9878C23.9622 25.7937 25.4782 25.0345 27.1724 25.0345C30.2385 25.0345 32.7241 27.5201 32.7241 30.5862C32.7241 33.6523 30.2385 36.1379 27.1724 36.1379C24.1063 36.1379 21.6207 33.6523 21.6207 30.5862C21.6207 29.932 21.7342 29.303 21.9429 28.7188L9.7927 21.6519C8.77432 22.8561 7.25231 23.6207 5.55172 23.6207C2.48559 23.6207 0 21.1351 0 18.069C0 15.0028 2.48559 12.5172 5.55172 12.5172C7.25231 12.5172 8.77432 13.2819 9.7927 14.4861L21.9429 7.41915C21.7342 6.83493 21.6207 6.20595 21.6207 5.55172ZM27.1724 27.0345C25.859 27.0345 24.7109 27.7468 24.0952 28.8111C23.7936 29.3325 23.6207 29.9376 23.6207 30.5862C23.6207 32.5478 25.2108 34.1379 27.1724 34.1379C29.134 34.1379 30.7241 32.5478 30.7241 30.5862C30.7241 28.6246 29.134 27.0345 27.1724 27.0345ZM2 18.069C2 16.1074 3.59016 14.5172 5.55172 14.5172C7.51329 14.5172 9.10345 16.1074 9.10345 18.069C9.10345 20.0305 7.51329 21.6207 5.55172 21.6207C3.59016 21.6207 2 20.0305 2 18.069Z" fill="#DBDBDB"/>
</svg>
