<svg width="35" height="15" viewBox="0 0 35 15" fill="none" xmlns="http://www.w3.org/2000/svg">
<path d="M8.44434 0.566406H11.2461V9.28711C11.2461 12.228 9.01025 14.1948 5.67969 14.1855C2.33984 14.1948 0.131836 12.228 0.131836 9.28711V0.566406H2.91504V9.06445C2.92432 10.6138 4.01904 11.7271 5.67969 11.7363C7.35889 11.7271 8.45361 10.6138 8.44434 9.06445V0.566406Z" fill="#856B4D"/>
<path d="M13.5098 14V0.566406H18.7793C21.8315 0.566406 23.585 2.28271 23.585 4.94531C23.585 6.78223 22.7407 8.11816 21.21 8.77686L24.0674 14H20.9873L18.4175 9.23145H16.293V14H13.5098ZM16.293 6.96777H18.2598C19.9111 6.96777 20.7183 6.29053 20.709 4.94531C20.7183 3.59082 19.9111 2.85791 18.2598 2.84863H16.293V6.96777Z" fill="#856B4D"/>
<path d="M25.5146 14V0.566406H28.2979V11.6992H34.0869V14H25.5146Z" fill="#856B4D"/>
</svg>
